<?xml version="1.0" encoding="UTF-8" standalone="no"?>
<!-- Created with Inkscape (http://www.inkscape.org/) -->

<svg
   xmlns:dc="http://purl.org/dc/elements/1.1/"
   xmlns:cc="http://creativecommons.org/ns#"
   xmlns:rdf="http://www.w3.org/1999/02/22-rdf-syntax-ns#"
   xmlns:svg="http://www.w3.org/2000/svg"
   xmlns="http://www.w3.org/2000/svg"
   xmlns:sodipodi="http://sodipodi.sourceforge.net/DTD/sodipodi-0.dtd"
   xmlns:inkscape="http://www.inkscape.org/namespaces/inkscape"
   width="30mm"
   height="24.194mm"
   viewBox="0 0 30 24.194"
   version="1.1"
   id="svg4150"
   inkscape:version="0.92.3 (2405546, 2018-03-11)"
   sodipodi:docname="adapter.svg">
  <defs
     id="defs4144">
    <inkscape:path-effect
       effect="simplify"
       id="path-effect1926"
       is_visible="true"
       steps="1"
       threshold="0.00961538"
       smooth_angles="360"
       helper_size="0"
       simplify_individual_paths="false"
       simplify_just_coalesce="false"
       simplifyindividualpaths="false"
       simplifyJustCoalesce="false" />
    <inkscape:path-effect
       effect="simplify"
       id="path-effect1930"
       is_visible="true"
       steps="1"
       threshold="0.00961538"
       smooth_angles="360"
       helper_size="0"
       simplify_individual_paths="false"
       simplify_just_coalesce="false"
       simplifyindividualpaths="false"
       simplifyJustCoalesce="false" />
    <inkscape:path-effect
       effect="simplify"
       id="path-effect1934"
       is_visible="true"
       steps="1"
       threshold="0.00961538"
       smooth_angles="360"
       helper_size="0"
       simplify_individual_paths="false"
       simplify_just_coalesce="false"
       simplifyindividualpaths="false"
       simplifyJustCoalesce="false" />
    <inkscape:path-effect
       effect="simplify"
       id="path-effect1938"
       is_visible="true"
       steps="1"
       threshold="0.00961538"
       smooth_angles="360"
       helper_size="0"
       simplify_individual_paths="false"
       simplify_just_coalesce="false"
       simplifyindividualpaths="false"
       simplifyJustCoalesce="false" />
    <inkscape:path-effect
       effect="simplify"
       id="path-effect1942"
       is_visible="true"
       steps="1"
       threshold="0.00961538"
       smooth_angles="360"
       helper_size="0"
       simplify_individual_paths="false"
       simplify_just_coalesce="false"
       simplifyindividualpaths="false"
       simplifyJustCoalesce="false" />
    <inkscape:path-effect
       effect="simplify"
       id="path-effect1946"
       is_visible="true"
       steps="1"
       threshold="0.00961538"
       smooth_angles="360"
       helper_size="0"
       simplify_individual_paths="false"
       simplify_just_coalesce="false"
       simplifyindividualpaths="false"
       simplifyJustCoalesce="false" />
    <inkscape:path-effect
       effect="simplify"
       id="path-effect1950"
       is_visible="true"
       steps="1"
       threshold="0.00961538"
       smooth_angles="360"
       helper_size="0"
       simplify_individual_paths="false"
       simplify_just_coalesce="false"
       simplifyindividualpaths="false"
       simplifyJustCoalesce="false" />
    <inkscape:path-effect
       effect="simplify"
       id="path-effect1954"
       is_visible="true"
       steps="1"
       threshold="0.00961538"
       smooth_angles="360"
       helper_size="0"
       simplify_individual_paths="false"
       simplify_just_coalesce="false"
       simplifyindividualpaths="false"
       simplifyJustCoalesce="false" />
    <inkscape:path-effect
       effect="simplify"
       id="path-effect1958"
       is_visible="true"
       steps="1"
       threshold="0.00961538"
       smooth_angles="360"
       helper_size="0"
       simplify_individual_paths="false"
       simplify_just_coalesce="false"
       simplifyindividualpaths="false"
       simplifyJustCoalesce="false" />
    <inkscape:path-effect
       effect="simplify"
       id="path-effect1962"
       is_visible="true"
       steps="1"
       threshold="0.00961538"
       smooth_angles="360"
       helper_size="0"
       simplify_individual_paths="false"
       simplify_just_coalesce="false"
       simplifyindividualpaths="false"
       simplifyJustCoalesce="false" />
    <inkscape:path-effect
       effect="simplify"
       id="path-effect1966"
       is_visible="true"
       steps="1"
       threshold="0.00961538"
       smooth_angles="360"
       helper_size="0"
       simplify_individual_paths="false"
       simplify_just_coalesce="false"
       simplifyindividualpaths="false"
       simplifyJustCoalesce="false" />
    <inkscape:path-effect
       effect="simplify"
       id="path-effect1970"
       is_visible="true"
       steps="1"
       threshold="0.00961538"
       smooth_angles="360"
       helper_size="0"
       simplify_individual_paths="false"
       simplify_just_coalesce="false"
       simplifyindividualpaths="false"
       simplifyJustCoalesce="false" />
    <filter
       inkscape:collect="always"
       style="color-interpolation-filters:sRGB"
       id="filter1451"
       x="-0.129375"
       width="1.25875"
       y="-0.020909091"
       height="1.0418181">
      <feGaussianBlur
         inkscape:collect="always"
         stdDeviation="0.94919981"
         id="feGaussianBlur1453" />
    </filter>
  </defs>
  <sodipodi:namedview
     id="base"
     pagecolor="#ffffff"
     bordercolor="#666666"
     borderopacity="1.0"
     inkscape:pageopacity="0.0"
     inkscape:pageshadow="2"
     inkscape:zoom="3.827834"
     inkscape:cx="38.838283"
     inkscape:cy="63.430523"
     inkscape:document-units="mm"
     inkscape:current-layer="layer1"
     showgrid="false"
     inkscape:snap-global="true"
     inkscape:snap-bbox="true"
     inkscape:bbox-nodes="true"
     inkscape:window-width="1366"
     inkscape:window-height="705"
     inkscape:window-x="-8"
     inkscape:window-y="-8"
     inkscape:window-maximized="1" />
  <metadata
     id="metadata4147">
    <rdf:RDF>
      <cc:Work
         rdf:about="">
        <dc:format>image/svg+xml</dc:format>
        <dc:type
           rdf:resource="http://purl.org/dc/dcmitype/StillImage" />
        <dc:title></dc:title>
      </cc:Work>
    </rdf:RDF>
  </metadata>
  <g
     inkscape:label="Capa 1"
     inkscape:groupmode="layer"
     id="layer1"
     transform="translate(0,-272.806)">
    <g
       id="g3733"
       transform="matrix(0.04838709,0,0,0.04838709,-72.092398,227.06181)"
       style="stroke-width:20.66667175">
      <path
         style="opacity:1;fill:#d76cff;fill-opacity:1;fill-rule:nonzero;stroke:none;stroke-width:324.46670532;stroke-linecap:round;stroke-linejoin:bevel;stroke-miterlimit:4;stroke-dasharray:none;stroke-dashoffset:0;stroke-opacity:1;paint-order:normal"
         d="m 1508.6909,946.00773 h 583.419 c 10.1331,0 18.2906,8.97788 18.2906,20.12986 v 459.74021 c 0,11.152 -8.1575,20.1298 -18.2906,20.1298 h -583.419 c -10.1329,0 -18.2905,-8.9778 -18.2905,-20.1298 V 966.13759 c 0,-11.15198 8.1576,-20.12986 18.2905,-20.12986 z"
         id="path2884"
         inkscape:connector-curvature="0" />
      <g
         id="g3709"
         style="stroke-width:20.66667175">
        <circle
           style="opacity:1;fill:#9ade00;fill-opacity:1;fill-rule:nonzero;stroke:none;stroke-width:22.7333374;stroke-linecap:round;stroke-linejoin:miter;stroke-miterlimit:4;stroke-dasharray:none;stroke-dashoffset:0;stroke-opacity:1;paint-order:normal"
           id="path1645"
           cx="1800.4005"
           cy="1196.0077"
           r="185" />
        <g
           id="g3687"
           style="stroke-width:20.66667175">
          <path
             inkscape:connector-curvature="0"
             style="opacity:0.32000002;fill:#000000;fill-opacity:1;fill-rule:nonzero;stroke:none;stroke-width:324.46670532;stroke-linecap:round;stroke-linejoin:bevel;stroke-miterlimit:4;stroke-dasharray:none;stroke-dashoffset:0;stroke-opacity:1;paint-order:normal"
             d="m 1985.4004,1196.0077 -82.2897,-92.5488 -190.8067,205.629 62.717,70.15 c 62.2067,8.8402 126.057,-16.2349 164.6651,-61.9421 30.0638,-32.9319 46.5199,-80.4718 45.7143,-121.2881 z"
             id="path1423"
             sodipodi:nodetypes="cccccc" />
          <g
             transform="matrix(3.4778246,0.06345425,0.34138637,3.2730045,2731.1356,40.6)"
             id="g1634"
             style="stroke:none;stroke-width:6.13136435">
            <g
               id="g1555"
               transform="matrix(-0.25136312,0.95649607,-0.84792869,-0.15713379,-154.06073,836.697)"
               style="stroke:none;stroke-width:6.64829397">
              <g
                 id="g1570"
                 transform="translate(41.819819,-3.8518255)"
                 style="stroke:none;stroke-width:6.64829397">
                <g
                   style="stroke:none;stroke-width:12.02120018"
                   inkscape:transform-center-y="-10.220598"
                   inkscape:transform-center-x="-32.947208"
                   transform="matrix(-0.58639787,0.11027316,-0.55302724,-0.41759584,-430.18448,513.97357)"
                   id="g1490">
                  <path
                     inkscape:connector-curvature="0"
                     id="path1486"
                     transform="scale(0.26458333)"
                     d="m -1018.8066,1295.1367 c -11.0892,0 -20.0157,8.9285 -20.0157,20.0176 v 371.7519 c 0,11.0892 8.9265,20.0157 20.0157,20.0157 h 26.51754 c 11.08911,0 20.01758,-8.9265 20.01758,-20.0157 v -371.7519 c 0,-11.0891 -8.92847,-20.0176 -20.01758,-20.0176 z m 8.3554,13.5938 a 13.970589,13.970589 0 0 1 13.6719,14.2363 l -0.002,0.1035 a 13.970589,13.970589 0 0 1 -14.3125,13.5938 13.970589,13.970589 0 0 1 -13.6191,-14.2871 13.970589,13.970589 0 0 1 14.2617,-13.6465 z"
                     style="opacity:0.69899998;fill:#999999;fill-opacity:1;fill-rule:nonzero;stroke:none;stroke-width:49.97790909;stroke-linecap:round;stroke-linejoin:miter;stroke-miterlimit:4;stroke-dasharray:none;stroke-dashoffset:0;stroke-opacity:1;paint-order:normal;filter:url(#filter1451)" />
                  <path
                     inkscape:connector-curvature="0"
                     id="path1488"
                     d="m -270.93479,341.84644 c -2.93399,0 -5.29632,2.36181 -5.29632,5.2958 v 98.35938 c 0,2.93399 2.36233,5.2963 5.29632,5.2963 h 7.01612 c 2.93399,0 5.29632,-2.36231 5.29632,-5.2963 v -98.35938 c 0,-2.93399 -2.36233,-5.2958 -5.29632,-5.2958 z m 3.58635,4.42196 a 3.696385,3.696385 0 0 1 3.61736,3.76669 l -5.3e-4,0.0274 a 3.696385,3.696385 0 0 1 -3.78685,3.59669 3.696385,3.696385 0 0 1 -3.60392,-3.78012 3.696385,3.696385 0 0 1 3.77394,-3.61064 z"
                     style="opacity:1;fill:#cccccc;fill-opacity:1;fill-rule:nonzero;stroke:none;stroke-width:13.22332191;stroke-linecap:round;stroke-linejoin:miter;stroke-miterlimit:4;stroke-dasharray:none;stroke-dashoffset:0;stroke-opacity:1;paint-order:normal" />
                </g>
                <g
                   id="g1484"
                   transform="matrix(-0.61315957,0.11541692,-0.57822873,-0.43687667,-420.09231,515.37851)"
                   inkscape:transform-center-x="-54.516674"
                   inkscape:transform-center-y="-14.32268"
                   style="stroke:none;stroke-width:11.49314976">
                  <path
                     id="rect1441"
                     transform="scale(0.26458333)"
                     d="m -1018.8066,1295.1367 c -11.0892,0 -20.0157,8.9285 -20.0157,20.0176 v 371.7519 c 0,11.0892 8.9265,20.0157 20.0157,20.0157 h 26.51754 c 11.08911,0 20.01758,-8.9265 20.01758,-20.0157 v -371.7519 c 0,-11.0891 -8.92847,-20.0176 -20.01758,-20.0176 z m 8.3554,13.5938 a 13.970589,13.970589 0 0 1 13.6719,14.2363 l -0.002,0.1035 a 13.970589,13.970589 0 0 1 -14.3125,13.5938 13.970589,13.970589 0 0 1 -13.6191,-14.2871 13.970589,13.970589 0 0 1 14.2617,-13.6465 z"
                     style="opacity:0.69899998;fill:#999999;fill-opacity:1;fill-rule:nonzero;stroke:none;stroke-width:47.78254318;stroke-linecap:round;stroke-linejoin:miter;stroke-miterlimit:4;stroke-dasharray:none;stroke-dashoffset:0;stroke-opacity:1;paint-order:normal;filter:url(#filter1451)"
                     inkscape:connector-curvature="0" />
                  <path
                     inkscape:connector-curvature="0"
                     id="rect1431"
                     d="m -270.93479,341.84644 c -2.93399,0 -5.29632,2.36181 -5.29632,5.2958 v 98.35938 c 0,2.93399 2.36233,5.2963 5.29632,5.2963 h 7.01612 c 2.93399,0 5.29632,-2.36231 5.29632,-5.2963 v -98.35938 c 0,-2.93399 -2.36233,-5.2958 -5.29632,-5.2958 z m 3.58635,4.42196 a 3.696385,3.696385 0 0 1 3.61736,3.76669 l -5.3e-4,0.0274 a 3.696385,3.696385 0 0 1 -3.78685,3.59669 3.696385,3.696385 0 0 1 -3.60392,-3.78012 3.696385,3.696385 0 0 1 3.77394,-3.61064 z"
                     style="opacity:1;fill:#cccccc;fill-opacity:1;fill-rule:nonzero;stroke:none;stroke-width:12.64246655;stroke-linecap:round;stroke-linejoin:miter;stroke-miterlimit:4;stroke-dasharray:none;stroke-dashoffset:0;stroke-opacity:1;paint-order:normal" />
                </g>
                <g
                   id="g1531"
                   inkscape:transform-center-x="41.590359"
                   inkscape:transform-center-y="-9.7510986"
                   transform="matrix(0.66050961,-0.30262147,0.38488222,0.61937693,-379.30558,-61.048412)"
                   style="stroke:none;stroke-width:9.17046738">
                  <path
                     inkscape:transform-center-y="-23.73172"
                     inkscape:transform-center-x="62.025796"
                     inkscape:connector-curvature="0"
                     id="path1513"
                     d="m -407.2796,343.47351 c -10.22727,3.20042 -20.82682,7.23514 -21.72691,8.85828 l -23.52176,23.89103 c -0.26263,0.201 -0.44485,0.38283 -0.53257,0.54102 -1.69428,3.05531 -3.86223,36.87131 -3.86223,36.87131 4.13062,11.29422 9.13476,32.37879 12.39201,33.88254 3.25738,1.50372 65.93355,-18.71444 67.62786,-21.76975 l 23.74333,-24.11598 c 0.15345,-0.11923 0.26111,-0.22534 0.31118,-0.31562 1.69427,-3.05531 -10.73229,-33.2468 -10.73229,-33.2468 0,0 -21.15615,-27.38564 -24.41351,-28.88936 -1.52687,-0.70487 -10.26102,1.46944 -19.28511,4.29333 z"
                     style="opacity:1;fill:#e7580a;fill-opacity:1;fill-rule:nonzero;stroke:none;stroke-width:10.08751583;stroke-linecap:round;stroke-linejoin:miter;stroke-miterlimit:4;stroke-dasharray:none;stroke-dashoffset:0;stroke-opacity:1;paint-order:normal" />
                  <path
                     style="opacity:1;fill:#ff6600;fill-opacity:1;fill-rule:nonzero;stroke:none;stroke-width:10.08751583;stroke-linecap:round;stroke-linejoin:miter;stroke-miterlimit:4;stroke-dasharray:none;stroke-dashoffset:0;stroke-opacity:1;paint-order:normal"
                     d="m -412.04892,363.61221 c -3.25735,-1.50373 -39.31774,10.0963 -41.01202,13.1516 -1.69428,3.05532 -3.86214,36.87133 -3.86214,36.87133 4.13062,11.29423 9.13452,32.37894 12.39188,33.88267 3.25737,1.50372 65.93374,-18.7142 67.62805,-21.76952 1.69428,-3.05531 -10.73268,-33.24662 -10.73268,-33.24662 0,0 -21.15573,-27.38574 -24.41309,-28.88946 z"
                     id="path1519"
                     inkscape:connector-curvature="0"
                     sodipodi:nodetypes="zzccscz" />
                </g>
              </g>
            </g>
            <g
               id="g1605"
               transform="matrix(0.62137567,1.0799553,-0.80852136,0.74935655,232.79709,495.30962)"
               style="stroke:none;stroke-width:5.29906607">
              <g
                 style="stroke:none;stroke-width:6.07832003"
                 transform="matrix(0.75968644,-0.01247455,-0.09225204,1.0019696,-62.237029,-5.5094903)"
                 inkscape:transform-center-y="-1.2464196"
                 inkscape:transform-center-x="-2.1869949"
                 id="g1599">
                <path
                   inkscape:transform-center-y="0.72161656"
                   inkscape:transform-center-x="-0.30003512"
                   transform="rotate(-178.77847)"
                   d="m 383.74056,-364.93953 a 5.8750401,10.667836 0 0 1 -5.86304,10.3828 5.8750401,10.667836 0 0 1 -5.88229,-10.34685"
                   sodipodi:open="true"
                   sodipodi:end="3.1115003"
                   sodipodi:start="0.026720293"
                   sodipodi:ry="10.667836"
                   sodipodi:rx="5.8750401"
                   sodipodi:cy="-365.22455"
                   sodipodi:cx="377.86761"
                   sodipodi:type="arc"
                   id="path1547"
                   style="opacity:1;fill:#0e232e;fill-opacity:1;fill-rule:nonzero;stroke:none;stroke-width:6.68615103;stroke-linecap:round;stroke-linejoin:miter;stroke-miterlimit:4;stroke-dasharray:none;stroke-dashoffset:0;stroke-opacity:1;paint-order:normal" />
                <rect
                   ry="1.6669805"
                   y="363.00397"
                   x="-398.49249"
                   height="13.639249"
                   width="5.6830206"
                   id="rect1572"
                   style="opacity:1;fill:#0e232e;fill-opacity:1;fill-rule:nonzero;stroke:none;stroke-width:6.68615103;stroke-linecap:round;stroke-linejoin:miter;stroke-miterlimit:4;stroke-dasharray:none;stroke-dashoffset:0;stroke-opacity:1;paint-order:normal" />
                <rect
                   style="opacity:1;fill:#0e232e;fill-opacity:1;fill-rule:nonzero;stroke:none;stroke-width:6.68615103;stroke-linecap:round;stroke-linejoin:miter;stroke-miterlimit:4;stroke-dasharray:none;stroke-dashoffset:0;stroke-opacity:1;paint-order:normal"
                   id="rect1574"
                   width="5.6830206"
                   height="13.639249"
                   x="-378.31323"
                   y="363.00397"
                   ry="1.6669805" />
              </g>
            </g>
          </g>
        </g>
      </g>
    </g>
  </g>
</svg>
