<?xml version="1.0" encoding="UTF-8" standalone="no"?>
<!-- Created with Inkscape (http://www.inkscape.org/) -->

<svg
   xmlns:dc="http://purl.org/dc/elements/1.1/"
   xmlns:cc="http://creativecommons.org/ns#"
   xmlns:rdf="http://www.w3.org/1999/02/22-rdf-syntax-ns#"
   xmlns:svg="http://www.w3.org/2000/svg"
   xmlns="http://www.w3.org/2000/svg"
   xmlns:xlink="http://www.w3.org/1999/xlink"
   xmlns:sodipodi="http://sodipodi.sourceforge.net/DTD/sodipodi-0.dtd"
   xmlns:inkscape="http://www.inkscape.org/namespaces/inkscape"
   width="144"
   height="144"
   viewBox="0 0 38.100001 38.100001"
   version="1.1"
   id="svg8"
   inkscape:version="0.92.3 (2405546, 2018-03-11)"
   sodipodi:docname="favicon.svg"
   inkscape:export-filename="D:\INGENIERIA SISTEMAS\2018-1\PENDIENTES\APP SOFTWARE\soft-editando\img\patrones\favicon.png"
   inkscape:export-xdpi="7.96384"
   inkscape:export-ydpi="7.96384">
  <defs
     id="defs2">
    <linearGradient
       inkscape:collect="always"
       id="linearGradient846">
      <stop
         style="stop-color:#ffff3e;stop-opacity:1;"
         offset="0"
         id="stop842" />
      <stop
         id="stop854"
         offset="0.43780419"
         style="stop-color:#b50000;stop-opacity:1" />
      <stop
         style="stop-color:#ffff3e;stop-opacity:1"
         offset="0.48389411"
         id="stop856" />
      <stop
         id="stop858"
         offset="0.55768412"
         style="stop-color:#b50000;stop-opacity:1" />
      <stop
         style="stop-color:#ffff3e;stop-opacity:1"
         offset="1"
         id="stop844" />
    </linearGradient>
    <linearGradient
       inkscape:collect="always"
       xlink:href="#linearGradient846"
       id="linearGradient852"
       x1="143.27222"
       y1="109.67418"
       x2="66.488518"
       y2="187.21384"
       gradientUnits="userSpaceOnUse"
       gradientTransform="matrix(0.39819198,0,0,0.39819198,-22.760403,218.81873)" />
  </defs>
  <sodipodi:namedview
     id="base"
     pagecolor="#ffffff"
     bordercolor="#666666"
     borderopacity="1.0"
     inkscape:pageopacity="0.0"
     inkscape:pageshadow="2"
     inkscape:zoom="0.49497475"
     inkscape:cx="266.22646"
     inkscape:cy="309.90724"
     inkscape:document-units="mm"
     inkscape:current-layer="layer1"
     showgrid="false"
     inkscape:window-width="1366"
     inkscape:window-height="705"
     inkscape:window-x="-8"
     inkscape:window-y="-8"
     inkscape:window-maximized="1"
     units="px" />
  <metadata
     id="metadata5">
    <rdf:RDF>
      <cc:Work
         rdf:about="">
        <dc:format>image/svg+xml</dc:format>
        <dc:type
           rdf:resource="http://purl.org/dc/dcmitype/StillImage" />
        <dc:title></dc:title>
      </cc:Work>
    </rdf:RDF>
  </metadata>
  <g
     inkscape:label="Capa 1"
     inkscape:groupmode="layer"
     id="layer1"
     transform="translate(0,-258.89999)">
    <circle
       style="opacity:1;fill:url(#linearGradient852);fill-opacity:1;fill-rule:nonzero;stroke:none;stroke-width:1;stroke-linecap:round;stroke-linejoin:miter;stroke-miterlimit:4;stroke-dasharray:none;stroke-dashoffset:0;stroke-opacity:1;paint-order:normal"
       id="path840"
       cx="19.049755"
       cy="277.95026"
       r="19.049999" />
    <path
       style="font-style:normal;font-weight:normal;font-size:66.35723114px;line-height:1.25;font-family:sans-serif;letter-spacing:0px;word-spacing:0px;fill:#000000;fill-opacity:1;stroke:none;stroke-width:0.26458329;stroke-opacity:1"
       d="m 13.815239,265.75798 c -2.141701,0 -3.578162,0.31829 -4.3092647,0.95478 -0.7225022,0.62789 -1.0837981,1.89232 -1.0837981,3.79319 v 3.09645 c 0,1.28158 -0.2320706,2.17163 -0.6965365,2.6705 -0.4558647,0.49027 -1.2989573,0.73542 -2.5289309,0.73542 h -0.78687 v 1.84495 h 0.78687 c 1.2213728,0 2.0644649,0.24952 2.5289309,0.74839 0.4644659,0.49887 0.6965365,1.39765 0.6965365,2.69643 v 3.08348 c 0,1.90087 0.3612959,3.16967 1.0837981,3.80616 0.7311027,0.63649 2.1675637,0.95478 4.3092647,0.95478 h 0.799834 v -1.85791 h -0.877204 c -1.212771,0 -2.004132,-0.18927 -2.373986,-0.56773 -0.369851,-0.37845 -0.554759,-1.17397 -0.554759,-2.38674 v -3.19974 c 0,-1.34179 -0.193632,-2.31806 -0.580686,-2.92875 -0.3870546,-0.61068 -1.0579162,-1.03202 -2.0126511,-1.26426 0.9461341,-0.21503 1.6128381,-0.62805 1.9998931,-1.23874 0.395655,-0.61069 0.593444,-1.59111 0.593444,-2.9415 v -3.19975 c 0,-1.21277 0.184908,-2.00829 0.554759,-2.38674 0.369854,-0.37845 1.161215,-0.56772 2.373986,-0.56772 h 0.877204 v -1.84495 z m 9.66899,0 v 1.84495 h 0.903135 c 1.204172,0 1.986807,0.18927 2.34806,0.56772 0.36985,0.36985 0.554759,1.16537 0.554759,2.38674 v 3.19975 c 0,1.35039 0.193633,2.33081 0.580689,2.9415 0.387049,0.61069 1.05791,1.02371 2.012649,1.23874 -0.954739,0.23224 -1.6256,0.65358 -2.012649,1.26426 -0.387056,0.61069 -0.580689,1.58696 -0.580689,2.92875 v 3.19974 c 0,1.22998 -0.184909,2.02986 -0.554759,2.39971 -0.361253,0.36985 -1.143888,0.55476 -2.34806,0.55476 h -0.903135 v 1.85791 h 0.812801 c 2.141704,0 3.569437,-0.31829 4.283338,-0.95478 0.722501,-0.63649 1.0838,-1.90529 1.0838,-3.80616 v -3.08348 c 0,-1.29878 0.232278,-2.19756 0.69674,-2.69643 0.464468,-0.49887 1.307357,-0.74839 2.528726,-0.74839 h 0.80004 v -1.84495 h -0.80004 c -1.221369,0 -2.064258,-0.24515 -2.528726,-0.73542 -0.464462,-0.49887 -0.69674,-1.38892 -0.69674,-2.6705 v -3.09645 c 0,-1.90087 -0.361299,-3.1653 -1.0838,-3.79319 -0.713901,-0.63649 -2.141634,-0.95478 -4.283338,-0.95478 z m -10.169531,4.56104 c 1.451016,0.6838 1.651543,1.84308 1.891571,3.0009 0.862673,4.16126 1.268302,9.77303 -1.950558,12.59913 l 5.581952,0.17696 c -1.863374,-1.54703 -2.033675,-4.17358 -1.710613,-6.65764 h 2.568728 c 1.692229,0 2.969796,-0.38091 3.832766,-1.14275 0.869711,-0.76184 1.304528,-1.8878 1.304528,-3.37777 0,-1.47649 -0.434817,-2.5956 -1.304528,-3.35744 -0.86297,-0.76858 -2.1407,-1.12945 -3.832766,-1.15291 z m 3.812352,1.7672 h 2.568728 c 0.950616,0 1.6854,0.24607 2.204531,0.73823 0.51913,0.49217 0.778716,1.18998 0.778716,2.0934 0,0.91016 -0.259586,1.6114 -0.778716,2.10356 -0.519131,0.49217 -1.253923,0.73514 -2.204531,0.73823 H 17.12705 Z"
       id="text817"
       inkscape:connector-curvature="0"
       sodipodi:nodetypes="scsscsccscsscsccscsssccsscsccsccscssscssscsccscsscsccscsscsccacccscscsccssssscc" />
  </g>
</svg>
