<?xml version="1.0" encoding="UTF-8" standalone="no"?>
<!-- Created with Inkscape (http://www.inkscape.org/) -->

<svg
   xmlns:dc="http://purl.org/dc/elements/1.1/"
   xmlns:cc="http://creativecommons.org/ns#"
   xmlns:rdf="http://www.w3.org/1999/02/22-rdf-syntax-ns#"
   xmlns:svg="http://www.w3.org/2000/svg"
   xmlns="http://www.w3.org/2000/svg"
   xmlns:xlink="http://www.w3.org/1999/xlink"
   xmlns:sodipodi="http://sodipodi.sourceforge.net/DTD/sodipodi-0.dtd"
   xmlns:inkscape="http://www.inkscape.org/namespaces/inkscape"
   width="30mm"
   height="24.194mm"
   viewBox="0 0 30 24.194"
   version="1.1"
   id="svg4150"
   inkscape:version="0.92.3 (2405546, 2018-03-11)"
   sodipodi:docname="singleton.svg">
  <defs
     id="defs4144">
    <inkscape:path-effect
       effect="simplify"
       id="path-effect1926"
       is_visible="true"
       steps="1"
       threshold="0.00961538"
       smooth_angles="360"
       helper_size="0"
       simplify_individual_paths="false"
       simplify_just_coalesce="false"
       simplifyindividualpaths="false"
       simplifyJustCoalesce="false" />
    <inkscape:path-effect
       effect="simplify"
       id="path-effect1930"
       is_visible="true"
       steps="1"
       threshold="0.00961538"
       smooth_angles="360"
       helper_size="0"
       simplify_individual_paths="false"
       simplify_just_coalesce="false"
       simplifyindividualpaths="false"
       simplifyJustCoalesce="false" />
    <inkscape:path-effect
       effect="simplify"
       id="path-effect1934"
       is_visible="true"
       steps="1"
       threshold="0.00961538"
       smooth_angles="360"
       helper_size="0"
       simplify_individual_paths="false"
       simplify_just_coalesce="false"
       simplifyindividualpaths="false"
       simplifyJustCoalesce="false" />
    <inkscape:path-effect
       effect="simplify"
       id="path-effect1938"
       is_visible="true"
       steps="1"
       threshold="0.00961538"
       smooth_angles="360"
       helper_size="0"
       simplify_individual_paths="false"
       simplify_just_coalesce="false"
       simplifyindividualpaths="false"
       simplifyJustCoalesce="false" />
    <inkscape:path-effect
       effect="simplify"
       id="path-effect1942"
       is_visible="true"
       steps="1"
       threshold="0.00961538"
       smooth_angles="360"
       helper_size="0"
       simplify_individual_paths="false"
       simplify_just_coalesce="false"
       simplifyindividualpaths="false"
       simplifyJustCoalesce="false" />
    <inkscape:path-effect
       effect="simplify"
       id="path-effect1946"
       is_visible="true"
       steps="1"
       threshold="0.00961538"
       smooth_angles="360"
       helper_size="0"
       simplify_individual_paths="false"
       simplify_just_coalesce="false"
       simplifyindividualpaths="false"
       simplifyJustCoalesce="false" />
    <inkscape:path-effect
       effect="simplify"
       id="path-effect1950"
       is_visible="true"
       steps="1"
       threshold="0.00961538"
       smooth_angles="360"
       helper_size="0"
       simplify_individual_paths="false"
       simplify_just_coalesce="false"
       simplifyindividualpaths="false"
       simplifyJustCoalesce="false" />
    <inkscape:path-effect
       effect="simplify"
       id="path-effect1954"
       is_visible="true"
       steps="1"
       threshold="0.00961538"
       smooth_angles="360"
       helper_size="0"
       simplify_individual_paths="false"
       simplify_just_coalesce="false"
       simplifyindividualpaths="false"
       simplifyJustCoalesce="false" />
    <inkscape:path-effect
       effect="simplify"
       id="path-effect1958"
       is_visible="true"
       steps="1"
       threshold="0.00961538"
       smooth_angles="360"
       helper_size="0"
       simplify_individual_paths="false"
       simplify_just_coalesce="false"
       simplifyindividualpaths="false"
       simplifyJustCoalesce="false" />
    <inkscape:path-effect
       effect="simplify"
       id="path-effect1962"
       is_visible="true"
       steps="1"
       threshold="0.00961538"
       smooth_angles="360"
       helper_size="0"
       simplify_individual_paths="false"
       simplify_just_coalesce="false"
       simplifyindividualpaths="false"
       simplifyJustCoalesce="false" />
    <inkscape:path-effect
       effect="simplify"
       id="path-effect1966"
       is_visible="true"
       steps="1"
       threshold="0.00961538"
       smooth_angles="360"
       helper_size="0"
       simplify_individual_paths="false"
       simplify_just_coalesce="false"
       simplifyindividualpaths="false"
       simplifyJustCoalesce="false" />
    <inkscape:path-effect
       effect="simplify"
       id="path-effect1970"
       is_visible="true"
       steps="1"
       threshold="0.00961538"
       smooth_angles="360"
       helper_size="0"
       simplify_individual_paths="false"
       simplify_just_coalesce="false"
       simplifyindividualpaths="false"
       simplifyJustCoalesce="false" />
    <linearGradient
       inkscape:collect="always"
       xlink:href="#linearGradient1884"
       id="linearGradient1969"
       gradientUnits="userSpaceOnUse"
       gradientTransform="translate(-3.4545676,-130.58825)"
       x1="-163.47719"
       y1="1996.1805"
       x2="-163.47719"
       y2="1996.1805" />
    <linearGradient
       inkscape:collect="always"
       id="linearGradient1884">
      <stop
         style="stop-color:#2d2d2d;stop-opacity:1;"
         offset="0"
         id="stop1880" />
      <stop
         style="stop-color:#2d2d2d;stop-opacity:0;"
         offset="1"
         id="stop1882" />
    </linearGradient>
    <linearGradient
       inkscape:collect="always"
       xlink:href="#linearGradient1884"
       id="linearGradient6475"
       gradientUnits="userSpaceOnUse"
       gradientTransform="translate(-3.4545676,-130.58825)"
       x1="-163.47719"
       y1="1996.1805"
       x2="-163.47719"
       y2="1996.1805" />
    <linearGradient
       inkscape:collect="always"
       xlink:href="#linearGradient1884"
       id="linearGradient6477"
       gradientUnits="userSpaceOnUse"
       gradientTransform="translate(-3.4545676,-130.58825)"
       x1="-163.47719"
       y1="1996.1805"
       x2="-163.47719"
       y2="1996.1805" />
    <linearGradient
       inkscape:collect="always"
       xlink:href="#linearGradient1884"
       id="linearGradient6479"
       gradientUnits="userSpaceOnUse"
       gradientTransform="translate(-3.4545676,-130.58825)"
       x1="-163.47719"
       y1="1996.1805"
       x2="-163.47719"
       y2="1996.1805" />
    <linearGradient
       inkscape:collect="always"
       xlink:href="#linearGradient1884"
       id="linearGradient6481"
       gradientUnits="userSpaceOnUse"
       gradientTransform="translate(-3.4545676,-130.58825)"
       x1="-163.47719"
       y1="1996.1805"
       x2="-163.47719"
       y2="1996.1805" />
    <filter
       inkscape:collect="always"
       style="color-interpolation-filters:sRGB"
       id="filter2449"
       x="-0.19031232"
       width="1.3806246"
       y="-0.1504867"
       height="1.3009734">
      <feGaussianBlur
         inkscape:collect="always"
         stdDeviation="8.3803095"
         id="feGaussianBlur2451" />
    </filter>
    <filter
       inkscape:collect="always"
       style="color-interpolation-filters:sRGB"
       id="filter2503"
       x="-0.17641103"
       width="1.3528221"
       y="-0.1609765"
       height="1.321953">
      <feGaussianBlur
         inkscape:collect="always"
         stdDeviation="8.7897597"
         id="feGaussianBlur2505" />
    </filter>
    <filter
       inkscape:collect="always"
       style="color-interpolation-filters:sRGB"
       id="filter2534"
       x="-0.17708446"
       width="1.3541689"
       y="-0.16045491"
       height="1.3209098">
      <feGaussianBlur
         inkscape:collect="always"
         stdDeviation="8.7149282"
         id="feGaussianBlur2536" />
    </filter>
    <filter
       inkscape:collect="always"
       style="color-interpolation-filters:sRGB"
       id="filter2546"
       x="-0.17642394"
       width="1.3528479"
       y="-0.16096643"
       height="1.3219329">
      <feGaussianBlur
         inkscape:collect="always"
         stdDeviation="8.7536363"
         id="feGaussianBlur2548" />
    </filter>
    <filter
       inkscape:collect="always"
       style="color-interpolation-filters:sRGB"
       id="filter2578"
       x="-0.17680036"
       width="1.3536007"
       y="-0.16067406"
       height="1.3213481">
      <feGaussianBlur
         inkscape:collect="always"
         stdDeviation="7.7328206"
         id="feGaussianBlur2580" />
    </filter>
    <filter
       inkscape:collect="always"
       style="color-interpolation-filters:sRGB"
       id="filter2630"
       x="-0.18124508"
       width="1.3624902"
       y="-0.15738826"
       height="1.3147765">
      <feGaussianBlur
         inkscape:collect="always"
         stdDeviation="8.3045455"
         id="feGaussianBlur2632" />
    </filter>
  </defs>
  <sodipodi:namedview
     id="base"
     pagecolor="#ffffff"
     bordercolor="#666666"
     borderopacity="1.0"
     inkscape:pageopacity="0.0"
     inkscape:pageshadow="2"
     inkscape:zoom="3.8278355"
     inkscape:cx="70.838532"
     inkscape:cy="37.443729"
     inkscape:document-units="mm"
     inkscape:current-layer="layer1"
     showgrid="false"
     inkscape:snap-global="true"
     inkscape:snap-bbox="true"
     inkscape:bbox-nodes="true"
     inkscape:window-width="1366"
     inkscape:window-height="705"
     inkscape:window-x="-8"
     inkscape:window-y="-8"
     inkscape:window-maximized="1"
     showguides="true"
     inkscape:guide-bbox="true" />
  <metadata
     id="metadata4147">
    <rdf:RDF>
      <cc:Work
         rdf:about="">
        <dc:format>image/svg+xml</dc:format>
        <dc:type
           rdf:resource="http://purl.org/dc/dcmitype/StillImage" />
        <dc:title />
      </cc:Work>
    </rdf:RDF>
  </metadata>
  <g
     inkscape:label="Capa 1"
     inkscape:groupmode="layer"
     id="layer1"
     transform="translate(0,-272.806)">
    <path
       inkscape:connector-curvature="0"
       id="path1766"
       d="M 0.97441007,272.81957 H 29.204361 c 0.490306,0 0.885024,0.43442 0.885024,0.97403 v 22.2455 c 0,0.53961 -0.394718,0.97401 -0.885024,0.97401 H 0.97441007 c -0.49030299,0 -0.8850231,-0.4344 -0.8850231,-0.97401 v -22.2455 c 0,-0.53961 0.39472011,-0.97403 0.8850231,-0.97403 z"
       style="opacity:1;fill:#ff4141;fill-opacity:1;fill-rule:nonzero;stroke:none;stroke-width:15.6999979;stroke-linecap:round;stroke-linejoin:bevel;stroke-miterlimit:4;stroke-dasharray:none;stroke-dashoffset:0;stroke-opacity:1;paint-order:normal" />
    <path
       d="m 23.907426,284.65376 a 8.8867397,8.9516115 0 0 1 -8.596335,9.20955 8.8867397,8.9516115 0 0 1 -9.1678253,-8.63221 8.8867397,8.9516115 0 0 1 8.5428923,-9.25987 8.8867397,8.9516115 0 0 1 9.217625,8.57823"
       sodipodi:open="true"
       sodipodi:end="6.2421875"
       sodipodi:start="6.2538463"
       sodipodi:ry="8.9516115"
       sodipodi:rx="8.8867397"
       sodipodi:cy="284.91635"
       sodipodi:cx="15.02451"
       sodipodi:type="arc"
       id="path1768"
       style="opacity:1;fill:#ffff3e;fill-opacity:1;fill-rule:nonzero;stroke:none;stroke-width:0.99999988;stroke-linecap:round;stroke-linejoin:miter;stroke-miterlimit:4;stroke-dasharray:none;stroke-dashoffset:0;stroke-opacity:1;paint-order:normal" />
    <path
       inkscape:connector-curvature="0"
       id="path1967"
       d="m -147.3724,1773.0503 0,109.3421 -119.58109,-37.4371 49.187,-45.5949 1.06578,-48.0146 z"
       style="opacity:0.3;fill:url(#linearGradient6475);fill-opacity:1;stroke:none;stroke-width:9.13808918px;stroke-linecap:butt;stroke-linejoin:miter;stroke-opacity:1;filter:url(#filter2503)"
       transform="matrix(0.02802341,0,0,0.02991528,15.359106,229.74363)"
       sodipodi:nodetypes="cccccc" />
    <path
       transform="matrix(0.02802341,0,0,0.02991528,27.135861,229.94764)"
       style="opacity:0.3;fill:url(#linearGradient6477);fill-opacity:1;stroke:none;stroke-width:9.13808918px;stroke-linecap:butt;stroke-linejoin:miter;stroke-opacity:1;filter:url(#filter2546)"
       d="m -143.27052,1768.7753 v 109.124 l -119.08093,-37.2864 44.58496,-41.2525 6.16507,-51.9773 z"
       id="path1953"
       inkscape:connector-curvature="0"
       sodipodi:nodetypes="cccccc" />
    <path
       inkscape:connector-curvature="0"
       id="path1957"
       d="m -143.74747,1777.0482 v 76.5626 c -11.55391,7.5177 -22.87917,15.3108 -35.3989,21.6652 l -69.5713,-21.7806 30.95118,-54.135 18.8302,-39.5901 z"
       style="opacity:0.3;fill:url(#linearGradient6479);fill-opacity:1;stroke:none;stroke-width:9.13808918px;stroke-linecap:butt;stroke-linejoin:miter;stroke-opacity:1;filter:url(#filter2578)"
       transform="matrix(0.02802341,0,0,0.02991528,24.436232,236.59716)"
       sodipodi:nodetypes="ccccccc" />
    <path
       style="opacity:0.3;fill:#2d2d2d;fill-opacity:1;stroke:none;stroke-width:5.4879775px;stroke-linecap:butt;stroke-linejoin:miter;stroke-opacity:1;filter:url(#filter2449)"
       d="m -150.08639,1900.3132 0,117.2578 -105.68282,-35.0696 41.45729,-52.5528 14.81494,-46.0289 z"
       id="path1878"
       inkscape:connector-curvature="0"
       transform="matrix(0.04803643,0,0,0.04838709,25.31929,191.53175)"
       sodipodi:nodetypes="cccccc" />
    <path
       inkscape:connector-curvature="0"
       id="path1945"
       d="m -142.24345,1774.5509 v 109.0726 l -118.11216,-36.9831 42.58912,-47.28 7.54823,-46.0902 z"
       style="opacity:0.3;fill:url(#linearGradient6481);fill-opacity:1;stroke:none;stroke-width:9.13808918px;stroke-linecap:butt;stroke-linejoin:miter;stroke-opacity:1;filter:url(#filter2534)"
       transform="matrix(0.02802341,0,0,0.02991528,21.153785,225.37371)"
       sodipodi:nodetypes="cccccc" />
    <path
       inkscape:connector-curvature="0"
       id="path1963"
       d="m -138.73205,1778.9708 0,108.9578 -109.96662,-34.433 37.71517,-49.8029 15.78598,-42.3994 z"
       style="opacity:0.3;fill:url(#linearGradient1969);fill-opacity:1;stroke:none;stroke-width:9.13808918px;stroke-linecap:butt;stroke-linejoin:miter;stroke-opacity:1;filter:url(#filter2630)"
       transform="matrix(0.02802341,0,0,0.02991528,17.078112,236.55138)"
       sodipodi:nodetypes="cccccc" />
    <g
       id="g1852"
       transform="matrix(0.0379115,0,0,0.03818825,45.772223,194.88997)"
       style="stroke-width:26.28147125">
      <path
         sodipodi:nodetypes="cccccc"
         inkscape:connector-curvature="0"
         id="path1794"
         transform="scale(0.26458333)"
         d="m -3062.6816,8344.4492 c 127.8665,490.2594 110.8838,826.2746 -596.125,427.5078 720.4317,-49.6717 788.4084,186.0354 222.373,699.0547 248.6677,-741.2307 493.2792,-756.3032 733.5566,4.5293 -583.5737,-539.0231 -456.0089,-747.6106 230.9922,-696.2519 -607.4777,328.8461 -783.8923,160.2209 -590.7968,-434.8399 z"
         style="opacity:0;fill:#ff6600;fill-opacity:1;fill-rule:nonzero;stroke:none;stroke-width:99.33152008;stroke-linecap:round;stroke-linejoin:miter;stroke-miterlimit:4;stroke-dasharray:none;stroke-dashoffset:0;stroke-opacity:1;paint-order:normal" />
      <path
         id="path1772"
         d="m -654.20195,2285.8167 c -9.42261,0.017 -17.60516,7.3629 -17.57157,17.224 0.024,6.9654 4.17805,13.2817 10.31522,16.0249 a 31.49507,40.804814 0 0 0 -8.58375,4.4781 31.49507,40.804814 0 0 0 -15.45824,36.3476 l 62.96251,-0.021 a 31.49507,40.804814 0 0 0 -15.47252,-36.3375 31.49507,40.804814 0 0 0 -8.95799,-4.6146 c 7.68784,-3.3083 12.20108,-12.0329 9.5915,-20.8892 -1.32932,-4.5114 -6.3718,-9.7268 -10.86026,-11.2328 -2.0001,-0.6711 -4.00922,-0.9833 -5.9649,-0.9799 z"
         style="opacity:1;fill:#0e232e;fill-opacity:1;fill-rule:nonzero;stroke:none;stroke-width:26.28146744;stroke-linecap:round;stroke-linejoin:miter;stroke-miterlimit:4;stroke-dasharray:none;stroke-dashoffset:0;stroke-opacity:1;paint-order:normal"
         inkscape:connector-curvature="0" />
      <path
         style="opacity:1;fill:#005c94;fill-opacity:1;fill-rule:nonzero;stroke:none;stroke-width:26.28146744;stroke-linecap:round;stroke-linejoin:miter;stroke-miterlimit:4;stroke-dasharray:none;stroke-dashoffset:0;stroke-opacity:1;paint-order:normal"
         d="m -811.34391,2290.8484 c -15.72258,0.03 -29.37598,13.2373 -29.3199,30.9663 0.0396,12.5228 6.97148,23.8785 17.21193,28.8105 a 52.552608,73.361391 0 0 0 -14.3228,8.0509 52.552608,73.361391 0 0 0 -25.79367,65.3482 l 105.05917,-0.037 a 52.552608,73.361391 0 0 0 -25.81741,-65.3298 52.552608,73.361391 0 0 0 -14.94722,-8.2963 c 12.82788,-5.948 20.35861,-21.6336 16.0043,-37.556 -2.21814,-8.1108 -10.6319,-17.4874 -18.12142,-20.1949 -3.3374,-1.2065 -6.68979,-1.7679 -9.95298,-1.7617 z"
         id="path1776"
         inkscape:connector-curvature="0" />
      <path
         inkscape:connector-curvature="0"
         style="opacity:1;fill:#0e232e;fill-opacity:1;fill-rule:nonzero;stroke:none;stroke-width:26.28146744;stroke-linecap:round;stroke-linejoin:miter;stroke-miterlimit:4;stroke-dasharray:none;stroke-dashoffset:0;stroke-opacity:1;paint-order:normal"
         d="m -810.5172,2170.7653 c -9.42261,0.017 -17.60516,7.3627 -17.57157,17.2239 0.024,6.9654 4.17805,13.2817 10.31522,16.0249 a 31.49507,40.804814 0 0 0 -8.58376,4.4781 31.49507,40.804814 0 0 0 -15.45823,36.3476 l 62.96251,-0.021 a 31.49507,40.804814 0 0 0 -15.47252,-36.3375 31.49507,40.804814 0 0 0 -8.95799,-4.6145 c 7.68783,-3.3083 12.20107,-12.0329 9.5915,-20.8892 -1.32932,-4.5114 -6.3718,-9.7269 -10.86026,-11.2328 -2.0001,-0.6711 -4.00922,-0.9833 -5.9649,-0.9798 z"
         id="path1797" />
      <path
         id="path1799"
         d="m -968.24172,2283.8763 c -9.42262,0.017 -17.60516,7.3628 -17.57157,17.2239 0.024,6.9653 4.17805,13.2817 10.31521,16.0249 a 31.49507,40.804814 0 0 0 -8.58375,4.478 31.49507,40.804814 0 0 0 -15.45826,36.3477 l 62.96253,-0.021 a 31.49507,40.804814 0 0 0 -15.47251,-36.3375 31.49507,40.804814 0 0 0 -8.95799,-4.6146 c 7.68783,-3.3083 12.20108,-12.0329 9.5915,-20.8892 -1.32933,-4.5113 -6.3718,-9.7268 -10.86027,-11.2327 -2.00009,-0.6711 -4.00922,-0.9833 -5.96489,-0.9798 z"
         style="opacity:1;fill:#0e232e;fill-opacity:1;fill-rule:nonzero;stroke:none;stroke-width:26.28146744;stroke-linecap:round;stroke-linejoin:miter;stroke-miterlimit:4;stroke-dasharray:none;stroke-dashoffset:0;stroke-opacity:1;paint-order:normal"
         inkscape:connector-curvature="0" />
      <path
         inkscape:connector-curvature="0"
         style="opacity:1;fill:#0e232e;fill-opacity:1;fill-rule:nonzero;stroke:none;stroke-width:26.28146744;stroke-linecap:round;stroke-linejoin:miter;stroke-miterlimit:4;stroke-dasharray:none;stroke-dashoffset:0;stroke-opacity:1;paint-order:normal"
         d="m -909.40556,2468.8345 c -9.42262,0.017 -17.60517,7.3629 -17.57157,17.224 0.0239,6.9654 4.17805,13.2817 10.31521,16.0249 a 31.49507,40.804814 0 0 0 -8.58375,4.4781 31.49507,40.804814 0 0 0 -15.45823,36.3476 l 62.9625,-0.021 a 31.49507,40.804814 0 0 0 -15.47251,-36.3375 31.49507,40.804814 0 0 0 -8.958,-4.6146 c 7.68784,-3.3083 12.20108,-12.0329 9.59151,-20.8892 -1.32932,-4.5114 -6.37181,-9.7268 -10.86026,-11.2328 -2.0001,-0.6711 -4.00923,-0.9833 -5.9649,-0.9799 z"
         id="path1801" />
      <path
         id="path1803"
         d="m -715.31882,2470.0333 c -9.42262,0.017 -17.60516,7.3628 -17.57158,17.2239 0.0239,6.9654 4.17806,13.2817 10.31522,16.0249 a 31.49507,40.804814 0 0 0 -8.58375,4.4781 31.49507,40.804814 0 0 0 -15.45824,36.3476 l 62.96251,-0.021 a 31.49507,40.804814 0 0 0 -15.47251,-36.3375 31.49507,40.804814 0 0 0 -8.95799,-4.6146 c 7.68783,-3.3083 12.20107,-12.0329 9.5915,-20.8892 -1.32933,-4.5114 -6.37181,-9.7268 -10.86027,-11.2328 -2.0001,-0.6711 -4.00922,-0.9833 -5.96489,-0.9799 z"
         style="opacity:1;fill:#0e232e;fill-opacity:1;fill-rule:nonzero;stroke:none;stroke-width:26.28146744;stroke-linecap:round;stroke-linejoin:miter;stroke-miterlimit:4;stroke-dasharray:none;stroke-dashoffset:0;stroke-opacity:1;paint-order:normal"
         inkscape:connector-curvature="0" />
      <path
         inkscape:connector-curvature="0"
         id="rect1824"
         d="m -837.32167,2187.6188 20.18365,20.1836 -20.18366,20.1837 6.80349,6.8035 20.18367,-20.1837 20.18364,20.1837 6.80353,-6.8035 -20.18366,-20.1837 20.1833,-20.1833 -6.80349,-6.8035 -20.18331,20.1833 -20.18363,-20.1837 z"
         style="opacity:1;fill:#dc0000;fill-opacity:1;fill-rule:nonzero;stroke:none;stroke-width:26.28147125;stroke-linecap:round;stroke-linejoin:miter;stroke-miterlimit:4;stroke-dasharray:none;stroke-dashoffset:0;stroke-opacity:1;paint-order:normal" />
      <path
         style="opacity:1;fill:#dc0000;fill-opacity:1;fill-rule:nonzero;stroke:none;stroke-width:26.28147125;stroke-linecap:round;stroke-linejoin:miter;stroke-miterlimit:4;stroke-dasharray:none;stroke-dashoffset:0;stroke-opacity:1;paint-order:normal"
         d="m -681.00642,2302.6702 20.18365,20.1836 -20.18366,20.1837 6.80349,6.8035 20.18367,-20.1837 20.18364,20.1837 6.80353,-6.8035 -20.18366,-20.1837 20.1833,-20.1833 -6.80349,-6.8035 -20.18331,20.1833 -20.18363,-20.1837 z"
         id="path1831"
         inkscape:connector-curvature="0" />
      <path
         inkscape:connector-curvature="0"
         id="path1833"
         d="m -742.12331,2486.8867 20.18365,20.1836 -20.18366,20.1837 6.80349,6.8035 20.18367,-20.1837 20.18364,20.1837 6.80353,-6.8035 -20.18366,-20.1837 20.1833,-20.1833 -6.80349,-6.8035 -20.18331,20.1833 -20.18363,-20.1837 z"
         style="opacity:1;fill:#dc0000;fill-opacity:1;fill-rule:nonzero;stroke:none;stroke-width:26.28147125;stroke-linecap:round;stroke-linejoin:miter;stroke-miterlimit:4;stroke-dasharray:none;stroke-dashoffset:0;stroke-opacity:1;paint-order:normal" />
      <path
         style="opacity:1;fill:#dc0000;fill-opacity:1;fill-rule:nonzero;stroke:none;stroke-width:26.28147125;stroke-linecap:round;stroke-linejoin:miter;stroke-miterlimit:4;stroke-dasharray:none;stroke-dashoffset:0;stroke-opacity:1;paint-order:normal"
         d="m -936.21004,2485.688 20.18366,20.1836 -20.18367,20.1837 6.80349,6.8035 20.18367,-20.1837 20.18363,20.1837 6.80354,-6.8035 -20.18367,-20.1837 20.18331,-20.1833 -6.8035,-6.8035 -20.18331,20.1833 -20.18363,-20.1837 z"
         id="path1835"
         inkscape:connector-curvature="0" />
      <path
         inkscape:connector-curvature="0"
         id="path1837"
         d="m -995.04622,2300.7298 20.18366,20.1836 -20.18367,20.1837 6.80349,6.8035 20.18367,-20.1837 20.18363,20.1837 6.80354,-6.8035 -20.18367,-20.1837 20.18331,-20.1833 -6.8035,-6.8035 -20.18331,20.1833 -20.18363,-20.1837 z"
         style="opacity:1;fill:#dc0000;fill-opacity:1;fill-rule:nonzero;stroke:none;stroke-width:26.28147125;stroke-linecap:round;stroke-linejoin:miter;stroke-miterlimit:4;stroke-dasharray:none;stroke-dashoffset:0;stroke-opacity:1;paint-order:normal" />
    </g>
    <rect
       style="opacity:0;fill:#2d2d2d;fill-opacity:1;fill-rule:nonzero;stroke:none;stroke-width:1;stroke-linecap:round;stroke-linejoin:miter;stroke-miterlimit:4;stroke-dasharray:none;stroke-dashoffset:0;stroke-opacity:1;paint-order:normal"
       id="rect1870"
       width="1.2636796"
       height="1.3167976"
       x="14.338349"
       y="285.85428"
       ry="7.4519931e-013" />
    <rect
       style="opacity:0;fill:#2d2d2d;fill-opacity:1;fill-rule:nonzero;stroke:none;stroke-width:1;stroke-linecap:round;stroke-linejoin:miter;stroke-miterlimit:4;stroke-dasharray:none;stroke-dashoffset:0;stroke-opacity:1;paint-order:normal"
       id="rect1872"
       width="2.0589266"
       height="3.80774"
       x="17.388611"
       y="282.54034"
       ry="7.4519931e-013" />
  </g>
</svg>
